<?xml version="1.0" encoding="UTF-8" standalone="no"?>
<!DOCTYPE svg PUBLIC "-//W3C//DTD SVG 1.1//EN"
 "http://www.w3.org/Graphics/SVG/1.1/DTD/svg11.dtd">
<!-- Generated by graphviz version 2.30.1 (20201013.1554)
 -->
<!-- Title: %3 Pages: 1 -->
<svg width="11058pt" height="694pt"
 viewBox="0.00 0.00 11058.00 694.00" xmlns="http://www.w3.org/2000/svg" xmlns:xlink="http://www.w3.org/1999/xlink">
<g id="graph0" class="graph" transform="scale(1 1) rotate(0) translate(4 690)">
<title>%3</title>
<polygon fill="white" stroke="white" points="-4,5 -4,-690 11055,-690 11055,5 -4,5"/>
<!-- 1 -->
<g id="node1" class="node"><title>1</title>
<polygon fill="#fd0b00" stroke="#fd0b00" points="8932.25,-685.5 7997.75,-685.5 7997.75,-644.5 8932.25,-644.5 8932.25,-685.5"/>
<text text-anchor="middle" x="8465" y="-673.5" font-family="Arial" font-size="10.00" fill="#ffffff">ROOT::Detail::RDF::RDefine&lt;ROOT::VecOps::RVec&lt;float&gt; (*)(ROOT::VecOps::RVec&lt;edm4hep::ReconstructedParticleData&gt;), ROOT::Detail::RDF::CustomColExtraArgs::None&gt;::Update(unsigned int, long long)</text>
<text text-anchor="middle" x="8465" y="-662.5" font-family="Arial" font-size="10.00" fill="#ffffff">98.97%</text>
<text text-anchor="middle" x="8465" y="-651.5" font-family="Arial" font-size="10.00" fill="#ffffff">(11.72%)</text>
</g>
<!-- 2 -->
<g id="node2" class="node"><title>2</title>
<polygon fill="#ec7a03" stroke="#ec7a03" points="9522,-604 7408,-604 7408,-552 9522,-552 9522,-604"/>
<text text-anchor="middle" x="8465" y="-592" font-family="Arial" font-size="10.00" fill="#ffffff">void ROOT::Detail::RDF::RDefine&lt;ROOT::VecOps::RVec&lt;float&gt; (*)(ROOT::VecOps::RVec&lt;edm4hep::ReconstructedParticleData&gt;), ROOT::Detail::RDF::CustomColExtraArgs::None&gt;::UpdateHelper&lt;ROOT::VecOps::RVec&lt;edm4hep::ReconstructedParticleData&gt;, 0ul&gt;(unsigned int, long long, ROOT::TypeTraits::TypeList&lt;ROOT::VecOps::RVec&lt;edm4hep::ReconstructedParticleData&gt; &gt;, std::integer_sequence&lt;unsigned long, 0ul&gt;, ROOT::Detail::RDF::CustomColExtraArgs::None)</text>
<text text-anchor="middle" x="8465" y="-581" font-family="Arial" font-size="10.00" fill="#ffffff">87.25%</text>
<text text-anchor="middle" x="8465" y="-570" font-family="Arial" font-size="10.00" fill="#ffffff">(37.49%)</text>
<text text-anchor="middle" x="8465" y="-559" font-family="Arial" font-size="10.00" fill="#ffffff">1735770×</text>
</g>
<!-- 1&#45;&gt;2 -->
<g id="edge1" class="edge"><title>1&#45;&gt;2</title>
<path fill="none" stroke="#ec7a03" stroke-width="3.49" d="M8465,-644.286C8465,-635.124 8465,-623.956 8465,-613.466"/>
<polygon fill="#ec7a03" stroke="#ec7a03" points="8468.26,-613.4 8465,-604.1 8461.75,-613.4 8468.26,-613.4"/>
<text text-anchor="middle" x="8486.5" y="-627" font-family="Arial" font-size="10.00" fill="#ec7a03">87.25%</text>
<text text-anchor="middle" x="8486.5" y="-616" font-family="Arial" font-size="10.00" fill="#ec7a03">1735770×</text>
</g>
<!-- 4 -->
<g id="node3" class="node"><title>4</title>
<polygon fill="#0ab411" stroke="#0ab411" points="5621,-512 5353,-512 5353,-460 5621,-460 5621,-512"/>
<text text-anchor="middle" x="5487" y="-500" font-family="Arial" font-size="10.00" fill="#ffffff">ROOT::Internal::RDF::RDefineReader::GetImpl(long long)</text>
<text text-anchor="middle" x="5487" y="-489" font-family="Arial" font-size="10.00" fill="#ffffff">48.87%</text>
<text text-anchor="middle" x="5487" y="-478" font-family="Arial" font-size="10.00" fill="#ffffff">(1.03%)</text>
<text text-anchor="middle" x="5487" y="-467" font-family="Arial" font-size="10.00" fill="#ffffff">2825202×</text>
</g>
<!-- 2&#45;&gt;4 -->
<g id="edge2" class="edge"><title>2&#45;&gt;4</title>
<path fill="none" stroke="#0ab411" stroke-width="1.95" d="M7637.44,-551.99C6934.01,-530.731 5983.41,-502.002 5628.42,-491.274"/>
<polygon fill="#0ab411" stroke="#0ab411" points="5628.24,-488.818 5621.17,-491.055 5628.09,-493.715 5628.24,-488.818"/>
<text text-anchor="middle" x="7351.5" y="-535" font-family="Arial" font-size="10.00" fill="#0ab411">48.87%</text>
<text text-anchor="middle" x="7351.5" y="-524" font-family="Arial" font-size="10.00" fill="#0ab411">2012529×</text>
</g>
<!-- 14 -->
<g id="node4" class="node"><title>14</title>
<polygon fill="#0d1575" stroke="#0d1575" points="5629.25,-144 5550.75,-144 5550.75,-92 5629.25,-92 5629.25,-144"/>
<text text-anchor="middle" x="5590" y="-132" font-family="Arial" font-size="10.00" fill="#ffffff">frame_dummy</text>
<text text-anchor="middle" x="5590" y="-121" font-family="Arial" font-size="10.00" fill="#ffffff">2.04%</text>
<text text-anchor="middle" x="5590" y="-110" font-family="Arial" font-size="10.00" fill="#ffffff">(1.69%)</text>
<text text-anchor="middle" x="5590" y="-99" font-family="Arial" font-size="10.00" fill="#ffffff">1933884×</text>
</g>
<!-- 2&#45;&gt;14 -->
<g id="edge3" class="edge"><title>2&#45;&gt;14</title>
<path fill="none" stroke="#0d0e73" stroke-width="0.5" d="M8465,-551.784C8465,-533.741 8465,-508.875 8465,-487 8465,-487 8465,-487 8465,-209 8465,-134.874 5990.56,-120.824 5632.88,-119.181"/>
<polygon fill="#0d0e73" stroke="#0d0e73" points="5632.78,-117.955 5629.28,-119.164 5632.77,-120.405 5632.78,-117.955"/>
<text text-anchor="middle" x="8484" y="-351" font-family="Arial" font-size="10.00" fill="#0d0e73">0.33%</text>
<text text-anchor="middle" x="8484" y="-340" font-family="Arial" font-size="10.00" fill="#0d0e73">316329×</text>
</g>
<!-- 15 -->
<g id="node5" class="node"><title>15</title>
<polygon fill="#0d1174" stroke="#0d1174" points="7925,-52 7613,-52 7613,-0 7925,-0 7925,-52"/>
<text text-anchor="middle" x="7769" y="-40" font-family="Arial" font-size="10.00" fill="#ffffff">ROOT::Internal::VecOps::SmallVectorBase::set_size(unsigned long)</text>
<text text-anchor="middle" x="7769" y="-29" font-family="Arial" font-size="10.00" fill="#ffffff">1.03%</text>
<text text-anchor="middle" x="7769" y="-18" font-family="Arial" font-size="10.00" fill="#ffffff">(1.03%)</text>
<text text-anchor="middle" x="7769" y="-7" font-family="Arial" font-size="10.00" fill="#ffffff">3945832×</text>
</g>
<!-- 2&#45;&gt;15 -->
<g id="edge4" class="edge"><title>2&#45;&gt;15</title>
<path fill="none" stroke="#0d0f73" stroke-width="0.5" d="M8487.03,-551.71C8499.65,-534.627 8513,-510.906 8513,-487 8513,-487 8513,-487 8513,-117 8513,-58.6444 8147.6,-37.8791 7928.95,-30.6772"/>
<polygon fill="#0d0f73" stroke="#0d0f73" points="7928.96,-29.4519 7925.42,-30.5617 7928.88,-31.9006 7928.96,-29.4519"/>
<text text-anchor="middle" x="8534.5" y="-305" font-family="Arial" font-size="10.00" fill="#0d0f73">0.56%</text>
<text text-anchor="middle" x="8534.5" y="-294" font-family="Arial" font-size="10.00" fill="#0d0f73">1904016×</text>
</g>
<!-- 5 -->
<g id="node6" class="node"><title>5</title>
<polygon fill="#0d4f85" stroke="#0d4f85" points="4837.25,-420 3632.75,-420 3632.75,-368 4837.25,-368 4837.25,-420"/>
<text text-anchor="middle" x="4235" y="-408" font-family="Arial" font-size="10.00" fill="#ffffff">ROOT::Detail::RDF::RDefine&lt;ROOT::VecOps::RVec&lt;edm4hep::ReconstructedParticleData&gt; (*)(ROOT::VecOps::RVec&lt;int&gt;, ROOT::VecOps::RVec&lt;edm4hep::ReconstructedParticleData&gt;), ROOT::Detail::RDF::CustomColExtraArgs::None&gt;::Update(unsigned int, long long)</text>
<text text-anchor="middle" x="4235" y="-397" font-family="Arial" font-size="10.00" fill="#ffffff">13.93%</text>
<text text-anchor="middle" x="4235" y="-386" font-family="Arial" font-size="10.00" fill="#ffffff">(1.78%)</text>
<text text-anchor="middle" x="4235" y="-375" font-family="Arial" font-size="10.00" fill="#ffffff">269345×</text>
</g>
<!-- 4&#45;&gt;5 -->
<g id="edge5" class="edge"><title>4&#45;&gt;5</title>
<path fill="none" stroke="#0d4f85" stroke-width="0.56" d="M5352.72,-475.347C5171.27,-462.304 4841.23,-438.579 4586.66,-420.279"/>
<polygon fill="#0d4f85" stroke="#0d4f85" points="4586.7,-418.984 4582.91,-420.01 4586.51,-421.567 4586.7,-418.984"/>
<text text-anchor="middle" x="5029" y="-443" font-family="Arial" font-size="10.00" fill="#0d4f85">13.93%</text>
<text text-anchor="middle" x="5029" y="-432" font-family="Arial" font-size="10.00" fill="#0d4f85">269345×</text>
</g>
<!-- 10 -->
<g id="node7" class="node"><title>10</title>
<polygon fill="#0d4382" stroke="#0d4382" points="5663,-420 4923,-420 4923,-368 5663,-368 5663,-420"/>
<text text-anchor="middle" x="5293" y="-408" font-family="Arial" font-size="10.00" fill="#ffffff">ROOT::Detail::RDF::RDefine&lt;FCCAnalyses::ReconstructedParticle::recoilBuilder, ROOT::Detail::RDF::CustomColExtraArgs::None&gt;::Update(unsigned int, long long)</text>
<text text-anchor="middle" x="5293" y="-397" font-family="Arial" font-size="10.00" fill="#ffffff">11.59%</text>
<text text-anchor="middle" x="5293" y="-386" font-family="Arial" font-size="10.00" fill="#ffffff">(6.47%)</text>
<text text-anchor="middle" x="5293" y="-375" font-family="Arial" font-size="10.00" fill="#ffffff">191033×</text>
</g>
<!-- 4&#45;&gt;10 -->
<g id="edge6" class="edge"><title>4&#45;&gt;10</title>
<path fill="none" stroke="#0d4382" stroke-width="0.5" d="M5432.96,-459.93C5407.32,-448.033 5376.65,-433.807 5350.57,-421.708"/>
<polygon fill="#0d4382" stroke="#0d4382" points="5350.78,-420.453 5347.09,-420.092 5349.75,-422.676 5350.78,-420.453"/>
<text text-anchor="middle" x="5433" y="-443" font-family="Arial" font-size="10.00" fill="#0d4382">11.59%</text>
<text text-anchor="middle" x="5433" y="-432" font-family="Arial" font-size="10.00" fill="#0d4382">191033×</text>
</g>
<!-- 12 -->
<g id="node8" class="node"><title>12</title>
<polygon fill="#0d3e80" stroke="#0d3e80" points="6952.25,-420 6239.75,-420 6239.75,-368 6952.25,-368 6952.25,-420"/>
<text text-anchor="middle" x="6596" y="-408" font-family="Arial" font-size="10.00" fill="#ffffff">ROOT::Detail::RDF::RDefine&lt;FCCAnalyses::ReconstructedParticle::sel_pt, ROOT::Detail::RDF::CustomColExtraArgs::None&gt;::Update(unsigned int, long long)</text>
<text text-anchor="middle" x="6596" y="-397" font-family="Arial" font-size="10.00" fill="#ffffff">10.66%</text>
<text text-anchor="middle" x="6596" y="-386" font-family="Arial" font-size="10.00" fill="#ffffff">(3.28%)</text>
<text text-anchor="middle" x="6596" y="-375" font-family="Arial" font-size="10.00" fill="#ffffff">998986×</text>
</g>
<!-- 4&#45;&gt;12 -->
<g id="edge7" class="edge"><title>4&#45;&gt;12</title>
<path fill="none" stroke="#0d3e80" stroke-width="0.5" d="M5621.05,-474.122C5784.43,-460.862 6065.75,-438.032 6284.34,-420.293"/>
<polygon fill="#0d3e80" stroke="#0d3e80" points="6284.48,-421.51 6287.87,-420.006 6284.28,-419.068 6284.48,-421.51"/>
<text text-anchor="middle" x="6192" y="-443" font-family="Arial" font-size="10.00" fill="#0d3e80">10.66%</text>
<text text-anchor="middle" x="6192" y="-432" font-family="Arial" font-size="10.00" fill="#0d3e80">998986×</text>
</g>
<!-- 13 -->
<g id="node9" class="node"><title>13</title>
<polygon fill="#0d4382" stroke="#0d4382" points="2181.25,-420 1420.75,-420 1420.75,-368 2181.25,-368 2181.25,-420"/>
<text text-anchor="middle" x="1801" y="-408" font-family="Arial" font-size="10.00" fill="#ffffff">ROOT::Detail::RDF::RDefine&lt;FCCAnalyses::ReconstructedParticle::resonanceBuilder, ROOT::Detail::RDF::CustomColExtraArgs::None&gt;::Update(unsigned int, long long)</text>
<text text-anchor="middle" x="1801" y="-397" font-family="Arial" font-size="10.00" fill="#ffffff">11.66%</text>
<text text-anchor="middle" x="1801" y="-386" font-family="Arial" font-size="10.00" fill="#ffffff">(2.25%)</text>
<text text-anchor="middle" x="1801" y="-375" font-family="Arial" font-size="10.00" fill="#ffffff">993345×</text>
</g>
<!-- 4&#45;&gt;13 -->
<g id="edge8" class="edge"><title>4&#45;&gt;13</title>
<path fill="none" stroke="#0d4382" stroke-width="0.5" d="M5352.84,-483.714C5020.1,-480.331 4130.11,-470.102 3388,-451 2977.07,-440.423 2506.46,-423.17 2185.1,-410.606"/>
<polygon fill="#0d4382" stroke="#0d4382" points="2184.87,-409.371 2181.32,-410.458 2184.77,-411.819 2184.87,-409.371"/>
<text text-anchor="middle" x="3407" y="-443" font-family="Arial" font-size="10.00" fill="#0d4382">11.66%</text>
<text text-anchor="middle" x="3407" y="-432" font-family="Arial" font-size="10.00" fill="#0d4382">993345×</text>
</g>
<!-- 14&#45;&gt;15 -->
<g id="edge22" class="edge"><title>14&#45;&gt;15</title>
<path fill="none" stroke="#0d0e73" stroke-width="0.5" d="M5629.68,-115.361C5871.79,-105.361 7154.76,-52.3703 7609.24,-33.5986"/>
<polygon fill="#0d0e73" stroke="#0d0e73" points="7609.45,-34.8162 7612.89,-33.4477 7609.35,-32.3683 7609.45,-34.8162"/>
<text text-anchor="middle" x="6959.5" y="-75" font-family="Arial" font-size="10.00" fill="#0d0e73">0.36%</text>
<text text-anchor="middle" x="6959.5" y="-64" font-family="Arial" font-size="10.00" fill="#0d0e73">1221291×</text>
</g>
<!-- 15&#45;&gt;15 -->
<g id="edge23" class="edge"><title>15&#45;&gt;15</title>
<path fill="none" stroke="#0d1174" stroke-width="0.5" d="M7925.09,-30.9105C7930.75,-29.6134 7934,-27.9766 7934,-26 7934,-24.5176 7932.17,-23.2262 7928.87,-22.126"/>
<polygon fill="#0d1174" stroke="#0d1174" points="7928.79,-20.8336 7925.09,-21.0895 7928.14,-23.1964 7928.79,-20.8336"/>
<text text-anchor="middle" x="7953" y="-23.5" font-family="Arial" font-size="10.00" fill="#0d1174">417240×</text>
</g>
<!-- 6 -->
<g id="node10" class="node"><title>6</title>
<polygon fill="#0d4682" stroke="#0d4682" points="4621,-328 1949,-328 1949,-276 4621,-276 4621,-328"/>
<text text-anchor="middle" x="3285" y="-316" font-family="Arial" font-size="10.00" fill="#ffffff">void ROOT::Detail::RDF::RDefine&lt;ROOT::VecOps::RVec&lt;edm4hep::ReconstructedParticleData&gt; (*)(ROOT::VecOps::RVec&lt;int&gt;, ROOT::VecOps::RVec&lt;edm4hep::ReconstructedParticleData&gt;), ROOT::Detail::RDF::CustomColExtraArgs::None&gt;::UpdateHelper&lt;ROOT::VecOps::RVec&lt;int&gt;, ROOT::VecOps::RVec&lt;edm4hep::ReconstructedParticleData&gt;, 0ul, 1ul&gt;(unsigned int, long long, ROOT::TypeTraits::TypeList&lt;ROOT::VecOps::RVec&lt;int&gt;, ROOT::VecOps::RVec&lt;edm4hep::ReconstructedParticleData&gt; &gt;, std::integer_sequence&lt;unsigned long, 0ul, 1ul&gt;, ROOT::Detail::RDF::CustomColExtraArgs::None)</text>
<text text-anchor="middle" x="3285" y="-305" font-family="Arial" font-size="10.00" fill="#ffffff">12.15%</text>
<text text-anchor="middle" x="3285" y="-294" font-family="Arial" font-size="10.00" fill="#ffffff">(3.09%)</text>
<text text-anchor="middle" x="3285" y="-283" font-family="Arial" font-size="10.00" fill="#ffffff">294435×</text>
</g>
<!-- 5&#45;&gt;6 -->
<g id="edge9" class="edge"><title>5&#45;&gt;6</title>
<path fill="none" stroke="#0d4682" stroke-width="0.5" d="M3971,-367.99C3840.65,-355.64 3683.69,-340.77 3552.82,-328.372"/>
<polygon fill="#0d4682" stroke="#0d4682" points="3552.56,-327.117 3548.96,-328.006 3552.32,-329.556 3552.56,-327.117"/>
<text text-anchor="middle" x="3893" y="-351" font-family="Arial" font-size="10.00" fill="#0d4682">12.15%</text>
<text text-anchor="middle" x="3893" y="-340" font-family="Arial" font-size="10.00" fill="#0d4682">294435×</text>
</g>
<!-- 11 -->
<g id="node14" class="node"><title>11</title>
<polygon fill="#0d2379" stroke="#0d2379" points="6549.25,-328 4630.75,-328 4630.75,-276 6549.25,-276 6549.25,-328"/>
<text text-anchor="middle" x="5590" y="-316" font-family="Arial" font-size="10.00" fill="#ffffff">void ROOT::Detail::RDF::RDefine&lt;FCCAnalyses::ReconstructedParticle::recoilBuilder, ROOT::Detail::RDF::CustomColExtraArgs::None&gt;::UpdateHelper&lt;ROOT::VecOps::RVec&lt;edm4hep::ReconstructedParticleData&gt;, 0ul&gt;(unsigned int, long long, ROOT::TypeTraits::TypeList&lt;ROOT::VecOps::RVec&lt;edm4hep::ReconstructedParticleData&gt; &gt;, std::integer_sequence&lt;unsigned long, 0ul&gt;, ROOT::Detail::RDF::CustomColExtraArgs::None)</text>
<text text-anchor="middle" x="5590" y="-305" font-family="Arial" font-size="10.00" fill="#ffffff">5.12%</text>
<text text-anchor="middle" x="5590" y="-294" font-family="Arial" font-size="10.00" fill="#ffffff">(4.87%)</text>
<text text-anchor="middle" x="5590" y="-283" font-family="Arial" font-size="10.00" fill="#ffffff">241536×</text>
</g>
<!-- 10&#45;&gt;11 -->
<g id="edge17" class="edge"><title>10&#45;&gt;11</title>
<path fill="none" stroke="#0d2379" stroke-width="0.5" d="M5375.73,-367.93C5415.71,-355.814 5463.67,-341.282 5504.07,-329.04"/>
<polygon fill="#0d2379" stroke="#0d2379" points="5504.46,-330.201 5507.46,-328.014 5503.75,-327.856 5504.46,-330.201"/>
<text text-anchor="middle" x="5496" y="-351" font-family="Arial" font-size="10.00" fill="#0d2379">5.12%</text>
<text text-anchor="middle" x="5496" y="-340" font-family="Arial" font-size="10.00" fill="#0d2379">241536×</text>
</g>
<!-- 9 -->
<g id="node13" class="node"><title>9</title>
<polygon fill="#0d2e7c" stroke="#0d2e7c" points="8451,-328 6559,-328 6559,-276 8451,-276 8451,-328"/>
<text text-anchor="middle" x="7505" y="-316" font-family="Arial" font-size="10.00" fill="#ffffff">void ROOT::Detail::RDF::RDefine&lt;FCCAnalyses::ReconstructedParticle::sel_pt, ROOT::Detail::RDF::CustomColExtraArgs::None&gt;::UpdateHelper&lt;ROOT::VecOps::RVec&lt;edm4hep::ReconstructedParticleData&gt;, 0ul&gt;(unsigned int, long long, ROOT::TypeTraits::TypeList&lt;ROOT::VecOps::RVec&lt;edm4hep::ReconstructedParticleData&gt; &gt;, std::integer_sequence&lt;unsigned long, 0ul&gt;, ROOT::Detail::RDF::CustomColExtraArgs::None)</text>
<text text-anchor="middle" x="7505" y="-305" font-family="Arial" font-size="10.00" fill="#ffffff">7.38%</text>
<text text-anchor="middle" x="7505" y="-294" font-family="Arial" font-size="10.00" fill="#ffffff">(7.12%)</text>
<text text-anchor="middle" x="7505" y="-283" font-family="Arial" font-size="10.00" fill="#ffffff">245808×</text>
</g>
<!-- 12&#45;&gt;9 -->
<g id="edge20" class="edge"><title>12&#45;&gt;9</title>
<path fill="none" stroke="#0d2e7c" stroke-width="0.5" d="M6848.6,-367.99C6973.33,-355.64 7123.52,-340.77 7248.74,-328.372"/>
<polygon fill="#0d2e7c" stroke="#0d2e7c" points="7249.07,-329.57 7252.44,-328.006 7248.83,-327.132 7249.07,-329.57"/>
<text text-anchor="middle" x="7177" y="-351" font-family="Arial" font-size="10.00" fill="#0d2e7c">7.38%</text>
<text text-anchor="middle" x="7177" y="-340" font-family="Arial" font-size="10.00" fill="#0d2e7c">245808×</text>
</g>
<!-- 7 -->
<g id="node12" class="node"><title>7</title>
<polygon fill="#0d387f" stroke="#0d387f" points="1940,-328 0,-328 0,-276 1940,-276 1940,-328"/>
<text text-anchor="middle" x="970" y="-316" font-family="Arial" font-size="10.00" fill="#ffffff">void ROOT::Detail::RDF::RDefine&lt;FCCAnalyses::ReconstructedParticle::resonanceBuilder, ROOT::Detail::RDF::CustomColExtraArgs::None&gt;::UpdateHelper&lt;ROOT::VecOps::RVec&lt;edm4hep::ReconstructedParticleData&gt;, 0ul&gt;(unsigned int, long long, ROOT::TypeTraits::TypeList&lt;ROOT::VecOps::RVec&lt;edm4hep::ReconstructedParticleData&gt; &gt;, std::integer_sequence&lt;unsigned long, 0ul&gt;, ROOT::Detail::RDF::CustomColExtraArgs::None)</text>
<text text-anchor="middle" x="970" y="-305" font-family="Arial" font-size="10.00" fill="#ffffff">9.41%</text>
<text text-anchor="middle" x="970" y="-294" font-family="Arial" font-size="10.00" fill="#ffffff">(9.18%)</text>
<text text-anchor="middle" x="970" y="-283" font-family="Arial" font-size="10.00" fill="#ffffff">255093×</text>
</g>
<!-- 13&#45;&gt;7 -->
<g id="edge21" class="edge"><title>13&#45;&gt;7</title>
<path fill="none" stroke="#0d387f" stroke-width="0.5" d="M1570.07,-367.99C1456.16,-355.653 1319.02,-340.8 1204.61,-328.409"/>
<polygon fill="#0d387f" stroke="#0d387f" points="1204.5,-327.165 1200.89,-328.006 1204.24,-329.601 1204.5,-327.165"/>
<text text-anchor="middle" x="1504" y="-351" font-family="Arial" font-size="10.00" fill="#0d387f">9.41%</text>
<text text-anchor="middle" x="1504" y="-340" font-family="Arial" font-size="10.00" fill="#0d387f">255093×</text>
</g>
<!-- 8 -->
<g id="node11" class="node"><title>8</title>
<polygon fill="#0d317d" stroke="#0d317d" points="5156.25,-236 4577.75,-236 4577.75,-184 5156.25,-184 5156.25,-236"/>
<text text-anchor="middle" x="4867" y="-224" font-family="Arial" font-size="10.00" fill="#ffffff">ROOT::Internal::RDF::RTreeColumnReader&lt;ROOT::VecOps::RVec&lt;edm4hep::ReconstructedParticleData&gt; &gt;::GetImpl(long long)</text>
<text text-anchor="middle" x="4867" y="-213" font-family="Arial" font-size="10.00" fill="#ffffff">8.16%</text>
<text text-anchor="middle" x="4867" y="-202" font-family="Arial" font-size="10.00" fill="#ffffff">(7.59%)</text>
<text text-anchor="middle" x="4867" y="-191" font-family="Arial" font-size="10.00" fill="#ffffff">295976×</text>
</g>
<!-- 6&#45;&gt;8 -->
<g id="edge10" class="edge"><title>6&#45;&gt;8</title>
<path fill="none" stroke="#0d317d" stroke-width="0.5" d="M3724.62,-275.99C3995.65,-260.571 4335.76,-241.222 4574.12,-227.662"/>
<polygon fill="#0d317d" stroke="#0d317d" points="4574.19,-228.885 4577.62,-227.463 4574.05,-226.439 4574.19,-228.885"/>
<text text-anchor="middle" x="4284" y="-259" font-family="Arial" font-size="10.00" fill="#0d317d">8.16%</text>
<text text-anchor="middle" x="4284" y="-248" font-family="Arial" font-size="10.00" fill="#0d317d">295976×</text>
</g>
<!-- 6&#45;&gt;14 -->
<g id="edge11" class="edge"><title>6&#45;&gt;14</title>
<path fill="none" stroke="#0d0e73" stroke-width="0.5" d="M3527.65,-275.984C3779.36,-250.575 4184.45,-211.198 4535,-184 4927.62,-153.538 5403.34,-128.472 5546.95,-121.16"/>
<polygon fill="#0d0e73" stroke="#0d0e73" points="5547.26,-122.371 5550.69,-120.97 5547.13,-119.924 5547.26,-122.371"/>
<text text-anchor="middle" x="4554" y="-213" font-family="Arial" font-size="10.00" fill="#0d0e73">0.40%</text>
<text text-anchor="middle" x="4554" y="-202" font-family="Arial" font-size="10.00" fill="#0d0e73">377912×</text>
</g>
<!-- 8&#45;&gt;14 -->
<g id="edge14" class="edge"><title>8&#45;&gt;14</title>
<path fill="none" stroke="#0d0f73" stroke-width="0.5" d="M5067.92,-183.99C5233.35,-163.396 5455.11,-135.791 5547.17,-124.332"/>
<polygon fill="#0d0f73" stroke="#0d0f73" points="5547.33,-125.546 5550.65,-123.898 5547.03,-123.115 5547.33,-125.546"/>
<text text-anchor="middle" x="5334" y="-167" font-family="Arial" font-size="10.00" fill="#0d0f73">0.57%</text>
<text text-anchor="middle" x="5334" y="-156" font-family="Arial" font-size="10.00" fill="#0d0f73">538503×</text>
</g>
<!-- 7&#45;&gt;4 -->
<g id="edge12" class="edge"><title>7&#45;&gt;4</title>
<path fill="none" stroke="#0d387f" stroke-width="0.5" d="M1494.06,-328.004C2022.91,-352.859 2863.06,-391.315 3590,-420 4248.65,-445.99 5036.18,-471.049 5349.06,-480.764"/>
<polygon fill="#0d387f" stroke="#0d387f" points="5349.18,-481.994 5352.72,-480.878 5349.26,-479.545 5349.18,-481.994"/>
<text text-anchor="middle" x="3609" y="-391.5" font-family="Arial" font-size="10.00" fill="#0d387f">259467×</text>
</g>
<!-- 7&#45;&gt;14 -->
<g id="edge13" class="edge"><title>7&#45;&gt;14</title>
<path fill="none" stroke="#0d0e73" stroke-width="0.5" d="M1577.39,-275.994C2308.85,-246.031 3574.77,-194.655 4661,-153 5002.36,-139.91 5414.31,-125.223 5546.77,-120.528"/>
<polygon fill="#0d0e73" stroke="#0d0e73" points="5547.15,-121.741 5550.61,-120.392 5547.07,-119.292 5547.15,-121.741"/>
<text text-anchor="middle" x="3837" y="-213" font-family="Arial" font-size="10.00" fill="#0d0e73">0.23%</text>
<text text-anchor="middle" x="3837" y="-202" font-family="Arial" font-size="10.00" fill="#0d0e73">217971×</text>
</g>
<!-- 9&#45;&gt;4 -->
<g id="edge15" class="edge"><title>9&#45;&gt;4</title>
<path fill="none" stroke="#0d2e7c" stroke-width="0.5" d="M6710.16,-328.018C6540.52,-337.406 6362.6,-350.299 6197,-368 5992.61,-389.848 5757.65,-431.945 5615.85,-459.236"/>
<polygon fill="#0d2e7c" stroke="#0d2e7c" points="5615.31,-458.093 5612.1,-459.958 5615.77,-460.499 5615.31,-458.093"/>
<text text-anchor="middle" x="6216" y="-391.5" font-family="Arial" font-size="10.00" fill="#0d2e7c">295554×</text>
</g>
<!-- 9&#45;&gt;14 -->
<g id="edge16" class="edge"><title>9&#45;&gt;14</title>
<path fill="none" stroke="#0d0e73" stroke-width="0.5" d="M7241.74,-275.98C6778.01,-231.907 5844.46,-143.183 5633.17,-123.103"/>
<polygon fill="#0d0e73" stroke="#0d0e73" points="5633.11,-121.867 5629.51,-122.755 5632.88,-124.306 5633.11,-121.867"/>
<text text-anchor="middle" x="6819" y="-213" font-family="Arial" font-size="10.00" fill="#0d0e73">0.26%</text>
<text text-anchor="middle" x="6819" y="-202" font-family="Arial" font-size="10.00" fill="#0d0e73">244541×</text>
</g>
<!-- 11&#45;&gt;4 -->
<g id="edge18" class="edge"><title>11&#45;&gt;4</title>
<path fill="none" stroke="#0d2379" stroke-width="0.5" d="M5632.31,-328.007C5646,-338.477 5659.56,-351.975 5667,-368 5676.74,-388.96 5680.28,-401.085 5667,-420 5655.27,-436.708 5638.8,-449.141 5620.54,-458.387"/>
<polygon fill="#0d2379" stroke="#0d2379" points="5619.95,-457.312 5617.36,-459.96 5621.04,-459.509 5619.95,-457.312"/>
<text text-anchor="middle" x="5695" y="-391.5" font-family="Arial" font-size="10.00" fill="#0d2379">257652×</text>
</g>
<!-- 11&#45;&gt;14 -->
<g id="edge19" class="edge"><title>11&#45;&gt;14</title>
<path fill="none" stroke="#0d0e73" stroke-width="0.5" d="M5590,-275.694C5590,-242.145 5590,-183.087 5590,-147.846"/>
<polygon fill="#0d0e73" stroke="#0d0e73" points="5591.23,-147.591 5590,-144.091 5588.78,-147.591 5591.23,-147.591"/>
<text text-anchor="middle" x="5609" y="-213" font-family="Arial" font-size="10.00" fill="#0d0e73">0.25%</text>
<text text-anchor="middle" x="5609" y="-202" font-family="Arial" font-size="10.00" fill="#0d0e73">237995×</text>
</g>
<!-- 16 -->
<g id="node15" class="node"><title>16</title>
<polygon fill="#0d0f74" stroke="#0d0f74" points="11050,-685.5 8942,-685.5 8942,-644.5 11050,-644.5 11050,-685.5"/>
<text text-anchor="middle" x="9996" y="-673.5" font-family="Arial" font-size="10.00" fill="#ffffff">ROOT::VecOps::RVecN&lt;edm4hep::ReconstructedParticleData, 8u&gt;::RVecN&lt;TTreeReaderArray&lt;edm4hep::ReconstructedParticleData&gt;::Iterator_t&lt;TTreeReaderArray&lt;edm4hep::ReconstructedParticleData&gt; &gt;, void&gt;(TTreeReaderArray&lt;edm4hep::ReconstructedParticleData&gt;::Iterator_t&lt;TTreeReaderArray&lt;edm4hep::ReconstructedParticleData&gt; &gt;, TTreeReaderArray&lt;edm4hep::ReconstructedParticleData&gt;::Iterator_t&lt;TTreeReaderArray&lt;edm4hep::ReconstructedParticleData&gt; &gt;)</text>
<text text-anchor="middle" x="9996" y="-662.5" font-family="Arial" font-size="10.00" fill="#ffffff">0.66%</text>
<text text-anchor="middle" x="9996" y="-651.5" font-family="Arial" font-size="10.00" fill="#ffffff">(0.66%)</text>
</g>
</g>
</svg>
