<?xml version="1.0" encoding="UTF-8" standalone="no"?>
<!DOCTYPE svg PUBLIC "-//W3C//DTD SVG 1.1//EN"
 "http://www.w3.org/Graphics/SVG/1.1/DTD/svg11.dtd">
<!-- Generated by graphviz version 2.30.1 (20201013.1554)
 -->
<!-- Title: %3 Pages: 1 -->
<svg width="8511pt" height="602pt"
 viewBox="0.00 0.00 8511.00 602.00" xmlns="http://www.w3.org/2000/svg" xmlns:xlink="http://www.w3.org/1999/xlink">
<g id="graph0" class="graph" transform="scale(1 1) rotate(0) translate(4 598)">
<title>%3</title>
<polygon fill="white" stroke="white" points="-4,5 -4,-598 8508,-598 8508,5 -4,5"/>
<!-- 1 -->
<g id="node1" class="node"><title>1</title>
<polygon fill="#ff0200" stroke="#ff0200" points="7849.25,-593.5 6914.75,-593.5 6914.75,-552.5 7849.25,-552.5 7849.25,-593.5"/>
<text text-anchor="middle" x="7382" y="-581.5" font-family="Arial" font-size="10.00" fill="#ffffff">ROOT::Detail::RDF::RDefine&lt;ROOT::VecOps::RVec&lt;float&gt; (*)(ROOT::VecOps::RVec&lt;edm4hep::ReconstructedParticleData&gt;), ROOT::Detail::RDF::CustomColExtraArgs::None&gt;::Update(unsigned int, long long)</text>
<text text-anchor="middle" x="7382" y="-570.5" font-family="Arial" font-size="10.00" fill="#ffffff">99.83%</text>
<text text-anchor="middle" x="7382" y="-559.5" font-family="Arial" font-size="10.00" fill="#ffffff">(15.22%)</text>
</g>
<!-- 2 -->
<g id="node2" class="node"><title>2</title>
<polygon fill="#e89004" stroke="#e89004" points="8439,-512 6325,-512 6325,-460 8439,-460 8439,-512"/>
<text text-anchor="middle" x="7382" y="-500" font-family="Arial" font-size="10.00" fill="#ffffff">void ROOT::Detail::RDF::RDefine&lt;ROOT::VecOps::RVec&lt;float&gt; (*)(ROOT::VecOps::RVec&lt;edm4hep::ReconstructedParticleData&gt;), ROOT::Detail::RDF::CustomColExtraArgs::None&gt;::UpdateHelper&lt;ROOT::VecOps::RVec&lt;edm4hep::ReconstructedParticleData&gt;, 0ul&gt;(unsigned int, long long, ROOT::TypeTraits::TypeList&lt;ROOT::VecOps::RVec&lt;edm4hep::ReconstructedParticleData&gt; &gt;, std::integer_sequence&lt;unsigned long, 0ul&gt;, ROOT::Detail::RDF::CustomColExtraArgs::None)</text>
<text text-anchor="middle" x="7382" y="-489" font-family="Arial" font-size="10.00" fill="#ffffff">84.61%</text>
<text text-anchor="middle" x="7382" y="-478" font-family="Arial" font-size="10.00" fill="#ffffff">(32.76%)</text>
<text text-anchor="middle" x="7382" y="-467" font-family="Arial" font-size="10.00" fill="#ffffff">1708628×</text>
</g>
<!-- 1&#45;&gt;2 -->
<g id="edge1" class="edge"><title>1&#45;&gt;2</title>
<path fill="none" stroke="#e89004" stroke-width="3.38" d="M7382,-552.286C7382,-543.124 7382,-531.956 7382,-521.466"/>
<polygon fill="#e89004" stroke="#e89004" points="7385.22,-521.3 7382,-512.1 7378.78,-521.3 7385.22,-521.3"/>
<text text-anchor="middle" x="7403.5" y="-535" font-family="Arial" font-size="10.00" fill="#e89004">84.61%</text>
<text text-anchor="middle" x="7403.5" y="-524" font-family="Arial" font-size="10.00" fill="#e89004">1708628×</text>
</g>
<!-- 4 -->
<g id="node3" class="node"><title>4</title>
<polygon fill="#12b809" stroke="#12b809" points="3882,-420 3614,-420 3614,-368 3882,-368 3882,-420"/>
<text text-anchor="middle" x="3748" y="-408" font-family="Arial" font-size="10.00" fill="#ffffff">ROOT::Internal::RDF::RDefineReader::GetImpl(long long)</text>
<text text-anchor="middle" x="3748" y="-397" font-family="Arial" font-size="10.00" fill="#ffffff">51.30%</text>
<text text-anchor="middle" x="3748" y="-386" font-family="Arial" font-size="10.00" fill="#ffffff">(0.86%)</text>
<text text-anchor="middle" x="3748" y="-375" font-family="Arial" font-size="10.00" fill="#ffffff">2900182×</text>
</g>
<!-- 2&#45;&gt;4 -->
<g id="edge2" class="edge"><title>2&#45;&gt;4</title>
<path fill="none" stroke="#12b809" stroke-width="2.05" d="M6372.44,-459.997C5492.55,-438.206 4295.53,-408.56 3889.42,-398.502"/>
<polygon fill="#12b809" stroke="#12b809" points="3889.28,-395.978 3882.02,-398.319 3889.16,-401.017 3889.28,-395.978"/>
<text text-anchor="middle" x="6018.5" y="-443" font-family="Arial" font-size="10.00" fill="#12b809">51.30%</text>
<text text-anchor="middle" x="6018.5" y="-432" font-family="Arial" font-size="10.00" fill="#12b809">2004232×</text>
</g>
<!-- 14 -->
<g id="node4" class="node"><title>14</title>
<polygon fill="#0d1475" stroke="#0d1475" points="5241.25,-52 5162.75,-52 5162.75,-0 5241.25,-0 5241.25,-52"/>
<text text-anchor="middle" x="5202" y="-40" font-family="Arial" font-size="10.00" fill="#ffffff">frame_dummy</text>
<text text-anchor="middle" x="5202" y="-29" font-family="Arial" font-size="10.00" fill="#ffffff">1.85%</text>
<text text-anchor="middle" x="5202" y="-18" font-family="Arial" font-size="10.00" fill="#ffffff">(1.72%)</text>
<text text-anchor="middle" x="5202" y="-7" font-family="Arial" font-size="10.00" fill="#ffffff">2028496×</text>
</g>
<!-- 2&#45;&gt;14 -->
<g id="edge3" class="edge"><title>2&#45;&gt;14</title>
<path fill="none" stroke="#0d0e73" stroke-width="0.5" d="M7970.25,-459.98C8224.55,-445.069 8465,-423.448 8465,-395 8465,-395 8465,-395 8465,-117 8465,-32.4842 5630.13,-27.3298 5245.1,-27.0195"/>
<polygon fill="#0d0e73" stroke="#0d0e73" points="5245,-25.7945 5241.5,-27.0167 5245,-28.2445 5245,-25.7945"/>
<text text-anchor="middle" x="8484" y="-259" font-family="Arial" font-size="10.00" fill="#0d0e73">0.30%</text>
<text text-anchor="middle" x="8484" y="-248" font-family="Arial" font-size="10.00" fill="#0d0e73">332689×</text>
</g>
<!-- 5 -->
<g id="node5" class="node"><title>5</title>
<polygon fill="#0d4d84" stroke="#0d4d84" points="6657.25,-328 5452.75,-328 5452.75,-276 6657.25,-276 6657.25,-328"/>
<text text-anchor="middle" x="6055" y="-316" font-family="Arial" font-size="10.00" fill="#ffffff">ROOT::Detail::RDF::RDefine&lt;ROOT::VecOps::RVec&lt;edm4hep::ReconstructedParticleData&gt; (*)(ROOT::VecOps::RVec&lt;int&gt;, ROOT::VecOps::RVec&lt;edm4hep::ReconstructedParticleData&gt;), ROOT::Detail::RDF::CustomColExtraArgs::None&gt;::Update(unsigned int, long long)</text>
<text text-anchor="middle" x="6055" y="-305" font-family="Arial" font-size="10.00" fill="#ffffff">13.48%</text>
<text text-anchor="middle" x="6055" y="-294" font-family="Arial" font-size="10.00" fill="#ffffff">(3.10%)</text>
<text text-anchor="middle" x="6055" y="-283" font-family="Arial" font-size="10.00" fill="#ffffff">301213×</text>
</g>
<!-- 4&#45;&gt;5 -->
<g id="edge4" class="edge"><title>4&#45;&gt;5</title>
<path fill="none" stroke="#0d4d84" stroke-width="0.54" d="M3882.01,-387.772C4180.53,-376.126 4915.87,-347.44 5448.59,-326.657"/>
<polygon fill="#0d4d84" stroke="#0d4d84" points="5448.85,-327.943 5452.5,-326.505 5448.75,-325.355 5448.85,-327.943"/>
<text text-anchor="middle" x="5194" y="-351" font-family="Arial" font-size="10.00" fill="#0d4d84">13.48%</text>
<text text-anchor="middle" x="5194" y="-340" font-family="Arial" font-size="10.00" fill="#0d4d84">301213×</text>
</g>
<!-- 11 -->
<g id="node6" class="node"><title>11</title>
<polygon fill="#0c5f88" stroke="#0c5f88" points="1599.25,-328 886.75,-328 886.75,-276 1599.25,-276 1599.25,-328"/>
<text text-anchor="middle" x="1243" y="-316" font-family="Arial" font-size="10.00" fill="#ffffff">ROOT::Detail::RDF::RDefine&lt;FCCAnalyses::ReconstructedParticle::sel_pt, ROOT::Detail::RDF::CustomColExtraArgs::None&gt;::Update(unsigned int, long long)</text>
<text text-anchor="middle" x="1243" y="-305" font-family="Arial" font-size="10.00" fill="#ffffff">16.65%</text>
<text text-anchor="middle" x="1243" y="-294" font-family="Arial" font-size="10.00" fill="#ffffff">(4.30%)</text>
<text text-anchor="middle" x="1243" y="-283" font-family="Arial" font-size="10.00" fill="#ffffff">996747×</text>
</g>
<!-- 4&#45;&gt;11 -->
<g id="edge5" class="edge"><title>4&#45;&gt;11</title>
<path fill="none" stroke="#0c5f88" stroke-width="0.67" d="M3613.91,-392.336C3331.41,-390.478 2654.31,-383.614 2087,-359 1916.86,-351.618 1727.66,-339.432 1571.59,-328.309"/>
<polygon fill="#0c5f88" stroke="#0c5f88" points="1571.64,-326.874 1567.45,-328.014 1571.43,-329.737 1571.64,-326.874"/>
<text text-anchor="middle" x="2106" y="-351" font-family="Arial" font-size="10.00" fill="#0c5f88">16.65%</text>
<text text-anchor="middle" x="2106" y="-340" font-family="Arial" font-size="10.00" fill="#0c5f88">996747×</text>
</g>
<!-- 12 -->
<g id="node7" class="node"><title>12</title>
<polygon fill="#0d387f" stroke="#0d387f" points="3281,-328 2541,-328 2541,-276 3281,-276 3281,-328"/>
<text text-anchor="middle" x="2911" y="-316" font-family="Arial" font-size="10.00" fill="#ffffff">ROOT::Detail::RDF::RDefine&lt;FCCAnalyses::ReconstructedParticle::recoilBuilder, ROOT::Detail::RDF::CustomColExtraArgs::None&gt;::Update(unsigned int, long long)</text>
<text text-anchor="middle" x="2911" y="-305" font-family="Arial" font-size="10.00" fill="#ffffff">9.52%</text>
<text text-anchor="middle" x="2911" y="-294" font-family="Arial" font-size="10.00" fill="#ffffff">(3.61%)</text>
<text text-anchor="middle" x="2911" y="-283" font-family="Arial" font-size="10.00" fill="#ffffff">194396×</text>
</g>
<!-- 4&#45;&gt;12 -->
<g id="edge6" class="edge"><title>4&#45;&gt;12</title>
<path fill="none" stroke="#0d387f" stroke-width="0.5" d="M3613.99,-378.59C3488.55,-365.102 3298.36,-344.652 3147.43,-328.422"/>
<polygon fill="#0d387f" stroke="#0d387f" points="3147.48,-327.196 3143.87,-328.04 3147.22,-329.632 3147.48,-327.196"/>
<text text-anchor="middle" x="3449" y="-351" font-family="Arial" font-size="10.00" fill="#0d387f">9.52%</text>
<text text-anchor="middle" x="3449" y="-340" font-family="Arial" font-size="10.00" fill="#0d387f">194396×</text>
</g>
<!-- 13 -->
<g id="node8" class="node"><title>13</title>
<polygon fill="#0d3f81" stroke="#0d3f81" points="4449.25,-328 3688.75,-328 3688.75,-276 4449.25,-276 4449.25,-328"/>
<text text-anchor="middle" x="4069" y="-316" font-family="Arial" font-size="10.00" fill="#ffffff">ROOT::Detail::RDF::RDefine&lt;FCCAnalyses::ReconstructedParticle::resonanceBuilder, ROOT::Detail::RDF::CustomColExtraArgs::None&gt;::Update(unsigned int, long long)</text>
<text text-anchor="middle" x="4069" y="-305" font-family="Arial" font-size="10.00" fill="#ffffff">10.79%</text>
<text text-anchor="middle" x="4069" y="-294" font-family="Arial" font-size="10.00" fill="#ffffff">(2.15%)</text>
<text text-anchor="middle" x="4069" y="-283" font-family="Arial" font-size="10.00" fill="#ffffff">973986×</text>
</g>
<!-- 4&#45;&gt;13 -->
<g id="edge7" class="edge"><title>4&#45;&gt;13</title>
<path fill="none" stroke="#0d3f81" stroke-width="0.5" d="M3837.42,-367.93C3880.72,-355.789 3932.67,-341.223 3976.39,-328.967"/>
<polygon fill="#0d3f81" stroke="#0d3f81" points="3976.75,-330.138 3979.79,-328.014 3976.08,-327.779 3976.75,-330.138"/>
<text text-anchor="middle" x="3965" y="-351" font-family="Arial" font-size="10.00" fill="#0d3f81">10.79%</text>
<text text-anchor="middle" x="3965" y="-340" font-family="Arial" font-size="10.00" fill="#0d3f81">973986×</text>
</g>
<!-- 7 -->
<g id="node9" class="node"><title>7</title>
<polygon fill="#0d3d80" stroke="#0d3d80" points="8451,-236 5779,-236 5779,-184 8451,-184 8451,-236"/>
<text text-anchor="middle" x="7115" y="-224" font-family="Arial" font-size="10.00" fill="#ffffff">void ROOT::Detail::RDF::RDefine&lt;ROOT::VecOps::RVec&lt;edm4hep::ReconstructedParticleData&gt; (*)(ROOT::VecOps::RVec&lt;int&gt;, ROOT::VecOps::RVec&lt;edm4hep::ReconstructedParticleData&gt;), ROOT::Detail::RDF::CustomColExtraArgs::None&gt;::UpdateHelper&lt;ROOT::VecOps::RVec&lt;int&gt;, ROOT::VecOps::RVec&lt;edm4hep::ReconstructedParticleData&gt;, 0ul, 1ul&gt;(unsigned int, long long, ROOT::TypeTraits::TypeList&lt;ROOT::VecOps::RVec&lt;int&gt;, ROOT::VecOps::RVec&lt;edm4hep::ReconstructedParticleData&gt; &gt;, std::integer_sequence&lt;unsigned long, 0ul, 1ul&gt;, ROOT::Detail::RDF::CustomColExtraArgs::None)</text>
<text text-anchor="middle" x="7115" y="-213" font-family="Arial" font-size="10.00" fill="#ffffff">10.38%</text>
<text text-anchor="middle" x="7115" y="-202" font-family="Arial" font-size="10.00" fill="#ffffff">(3.61%)</text>
<text text-anchor="middle" x="7115" y="-191" font-family="Arial" font-size="10.00" fill="#ffffff">291075×</text>
</g>
<!-- 5&#45;&gt;7 -->
<g id="edge8" class="edge"><title>5&#45;&gt;7</title>
<path fill="none" stroke="#0d3d80" stroke-width="0.5" d="M6349.57,-275.99C6495.16,-263.628 6670.49,-248.741 6816.6,-236.336"/>
<polygon fill="#0d3d80" stroke="#0d3d80" points="6817.1,-237.523 6820.48,-236.006 6816.89,-235.082 6817.1,-237.523"/>
<text text-anchor="middle" x="6730" y="-259" font-family="Arial" font-size="10.00" fill="#0d3d80">10.38%</text>
<text text-anchor="middle" x="6730" y="-248" font-family="Arial" font-size="10.00" fill="#0d3d80">291075×</text>
</g>
<!-- 6 -->
<g id="node10" class="node"><title>6</title>
<polygon fill="#0d4783" stroke="#0d4783" points="1892,-236 0,-236 0,-184 1892,-184 1892,-236"/>
<text text-anchor="middle" x="946" y="-224" font-family="Arial" font-size="10.00" fill="#ffffff">void ROOT::Detail::RDF::RDefine&lt;FCCAnalyses::ReconstructedParticle::sel_pt, ROOT::Detail::RDF::CustomColExtraArgs::None&gt;::UpdateHelper&lt;ROOT::VecOps::RVec&lt;edm4hep::ReconstructedParticleData&gt;, 0ul&gt;(unsigned int, long long, ROOT::TypeTraits::TypeList&lt;ROOT::VecOps::RVec&lt;edm4hep::ReconstructedParticleData&gt; &gt;, std::integer_sequence&lt;unsigned long, 0ul&gt;, ROOT::Detail::RDF::CustomColExtraArgs::None)</text>
<text text-anchor="middle" x="946" y="-213" font-family="Arial" font-size="10.00" fill="#ffffff">12.35%</text>
<text text-anchor="middle" x="946" y="-202" font-family="Arial" font-size="10.00" fill="#ffffff">(12.12%)</text>
<text text-anchor="middle" x="946" y="-191" font-family="Arial" font-size="10.00" fill="#ffffff">278392×</text>
</g>
<!-- 11&#45;&gt;6 -->
<g id="edge18" class="edge"><title>11&#45;&gt;6</title>
<path fill="none" stroke="#0d4783" stroke-width="0.5" d="M1160.27,-275.93C1120.29,-263.814 1072.33,-249.282 1031.93,-237.04"/>
<polygon fill="#0d4783" stroke="#0d4783" points="1032.25,-235.856 1028.54,-236.014 1031.54,-238.201 1032.25,-235.856"/>
<text text-anchor="middle" x="1149" y="-259" font-family="Arial" font-size="10.00" fill="#0d4783">12.35%</text>
<text text-anchor="middle" x="1149" y="-248" font-family="Arial" font-size="10.00" fill="#0d4783">278392×</text>
</g>
<!-- 10 -->
<g id="node13" class="node"><title>10</title>
<polygon fill="#0d277a" stroke="#0d277a" points="3820.25,-236 1901.75,-236 1901.75,-184 3820.25,-184 3820.25,-236"/>
<text text-anchor="middle" x="2861" y="-224" font-family="Arial" font-size="10.00" fill="#ffffff">void ROOT::Detail::RDF::RDefine&lt;FCCAnalyses::ReconstructedParticle::recoilBuilder, ROOT::Detail::RDF::CustomColExtraArgs::None&gt;::UpdateHelper&lt;ROOT::VecOps::RVec&lt;edm4hep::ReconstructedParticleData&gt;, 0ul&gt;(unsigned int, long long, ROOT::TypeTraits::TypeList&lt;ROOT::VecOps::RVec&lt;edm4hep::ReconstructedParticleData&gt; &gt;, std::integer_sequence&lt;unsigned long, 0ul&gt;, ROOT::Detail::RDF::CustomColExtraArgs::None)</text>
<text text-anchor="middle" x="2861" y="-213" font-family="Arial" font-size="10.00" fill="#ffffff">5.90%</text>
<text text-anchor="middle" x="2861" y="-202" font-family="Arial" font-size="10.00" fill="#ffffff">(5.67%)</text>
<text text-anchor="middle" x="2861" y="-191" font-family="Arial" font-size="10.00" fill="#ffffff">259526×</text>
</g>
<!-- 12&#45;&gt;10 -->
<g id="edge19" class="edge"><title>12&#45;&gt;10</title>
<path fill="none" stroke="#0d277a" stroke-width="0.5" d="M2897.07,-275.93C2890.79,-264.615 2883.33,-251.193 2876.83,-239.497"/>
<polygon fill="#0d277a" stroke="#0d277a" points="2877.8,-238.712 2875.03,-236.248 2875.66,-239.902 2877.8,-238.712"/>
<text text-anchor="middle" x="2911" y="-259" font-family="Arial" font-size="10.00" fill="#0d277a">5.90%</text>
<text text-anchor="middle" x="2911" y="-248" font-family="Arial" font-size="10.00" fill="#0d277a">259526×</text>
</g>
<!-- 8 -->
<g id="node12" class="node"><title>8</title>
<polygon fill="#0d347e" stroke="#0d347e" points="5770,-236 3830,-236 3830,-184 5770,-184 5770,-236"/>
<text text-anchor="middle" x="4800" y="-224" font-family="Arial" font-size="10.00" fill="#ffffff">void ROOT::Detail::RDF::RDefine&lt;FCCAnalyses::ReconstructedParticle::resonanceBuilder, ROOT::Detail::RDF::CustomColExtraArgs::None&gt;::UpdateHelper&lt;ROOT::VecOps::RVec&lt;edm4hep::ReconstructedParticleData&gt;, 0ul&gt;(unsigned int, long long, ROOT::TypeTraits::TypeList&lt;ROOT::VecOps::RVec&lt;edm4hep::ReconstructedParticleData&gt; &gt;, std::integer_sequence&lt;unsigned long, 0ul&gt;, ROOT::Detail::RDF::CustomColExtraArgs::None)</text>
<text text-anchor="middle" x="4800" y="-213" font-family="Arial" font-size="10.00" fill="#ffffff">8.64%</text>
<text text-anchor="middle" x="4800" y="-202" font-family="Arial" font-size="10.00" fill="#ffffff">(8.43%)</text>
<text text-anchor="middle" x="4800" y="-191" font-family="Arial" font-size="10.00" fill="#ffffff">271174×</text>
</g>
<!-- 13&#45;&gt;8 -->
<g id="edge20" class="edge"><title>13&#45;&gt;8</title>
<path fill="none" stroke="#0d347e" stroke-width="0.5" d="M4249.51,-275.98C4323.66,-265.95 4410.41,-254.534 4489,-245 4512.64,-242.132 4537.31,-239.249 4561.95,-236.441"/>
<polygon fill="#0d347e" stroke="#0d347e" points="4562.25,-237.64 4565.59,-236.027 4561.97,-235.206 4562.25,-237.64"/>
<text text-anchor="middle" x="4508" y="-259" font-family="Arial" font-size="10.00" fill="#0d347e">8.64%</text>
<text text-anchor="middle" x="4508" y="-248" font-family="Arial" font-size="10.00" fill="#0d347e">271174×</text>
</g>
<!-- 9 -->
<g id="node11" class="node"><title>9</title>
<polygon fill="#0d287b" stroke="#0d287b" points="6052.25,-144 5473.75,-144 5473.75,-92 6052.25,-92 6052.25,-144"/>
<text text-anchor="middle" x="5763" y="-132" font-family="Arial" font-size="10.00" fill="#ffffff">ROOT::Internal::RDF::RTreeColumnReader&lt;ROOT::VecOps::RVec&lt;edm4hep::ReconstructedParticleData&gt; &gt;::GetImpl(long long)</text>
<text text-anchor="middle" x="5763" y="-121" font-family="Arial" font-size="10.00" fill="#ffffff">6.21%</text>
<text text-anchor="middle" x="5763" y="-110" font-family="Arial" font-size="10.00" fill="#ffffff">(5.67%)</text>
<text text-anchor="middle" x="5763" y="-99" font-family="Arial" font-size="10.00" fill="#ffffff">302287×</text>
</g>
<!-- 7&#45;&gt;9 -->
<g id="edge11" class="edge"><title>7&#45;&gt;9</title>
<path fill="none" stroke="#0d287b" stroke-width="0.5" d="M6364.06,-183.995C6320.37,-181.294 6277.11,-178.306 6235,-175 6140.37,-167.57 6035.48,-155.511 5948.66,-144.482"/>
<polygon fill="#0d287b" stroke="#0d287b" points="5948.69,-143.251 5945.06,-144.024 5948.38,-145.681 5948.69,-143.251"/>
<text text-anchor="middle" x="6254" y="-167" font-family="Arial" font-size="10.00" fill="#0d287b">6.21%</text>
<text text-anchor="middle" x="6254" y="-156" font-family="Arial" font-size="10.00" fill="#0d287b">302287×</text>
</g>
<!-- 7&#45;&gt;14 -->
<g id="edge12" class="edge"><title>7&#45;&gt;14</title>
<path fill="none" stroke="#0d0e73" stroke-width="0.5" d="M6907.93,-183.979C6694.8,-158.724 6353.01,-119.611 6057,-92 5746.2,-63.0099 5370.94,-37.9027 5245.32,-29.7664"/>
<polygon fill="#0d0e73" stroke="#0d0e73" points="5245.24,-28.5343 5241.67,-29.5307 5245.09,-30.9792 5245.24,-28.5343"/>
<text text-anchor="middle" x="6575" y="-121" font-family="Arial" font-size="10.00" fill="#0d0e73">0.34%</text>
<text text-anchor="middle" x="6575" y="-110" font-family="Arial" font-size="10.00" fill="#0d0e73">372046×</text>
</g>
<!-- 6&#45;&gt;4 -->
<g id="edge9" class="edge"><title>6&#45;&gt;4</title>
<path fill="none" stroke="#0d4783" stroke-width="0.5" d="M1249.92,-236.014C1562.7,-261.264 2064.18,-300.372 2498,-328 2901.9,-353.722 3379.71,-376.421 3610.12,-386.881"/>
<polygon fill="#0d4783" stroke="#0d4783" points="3610.28,-388.115 3613.83,-387.05 3610.39,-385.667 3610.28,-388.115"/>
<text text-anchor="middle" x="2517" y="-299.5" font-family="Arial" font-size="10.00" fill="#0d4783">306555×</text>
</g>
<!-- 6&#45;&gt;14 -->
<g id="edge10" class="edge"><title>6&#45;&gt;14</title>
<path fill="none" stroke="#0d0e73" stroke-width="0.5" d="M1530.8,-183.992C2607.03,-137.969 4822.53,-43.2274 5158.82,-28.8464"/>
<polygon fill="#0d0e73" stroke="#0d0e73" points="5159.25,-30.0545 5162.69,-28.681 5159.14,-27.6067 5159.25,-30.0545"/>
<text text-anchor="middle" x="3655" y="-121" font-family="Arial" font-size="10.00" fill="#0d0e73">0.23%</text>
<text text-anchor="middle" x="3655" y="-110" font-family="Arial" font-size="10.00" fill="#0d0e73">247863×</text>
</g>
<!-- 9&#45;&gt;14 -->
<g id="edge15" class="edge"><title>9&#45;&gt;14</title>
<path fill="none" stroke="#0d0f73" stroke-width="0.5" d="M5607.1,-91.9898C5484.22,-72.2761 5321.3,-46.1387 5244.94,-33.8885"/>
<polygon fill="#0d0f73" stroke="#0d0f73" points="5245.02,-32.6606 5241.37,-33.3157 5244.63,-35.0797 5245.02,-32.6606"/>
<text text-anchor="middle" x="5568" y="-75" font-family="Arial" font-size="10.00" fill="#0d0f73">0.53%</text>
<text text-anchor="middle" x="5568" y="-64" font-family="Arial" font-size="10.00" fill="#0d0f73">583682×</text>
</g>
<!-- 8&#45;&gt;4 -->
<g id="edge13" class="edge"><title>8&#45;&gt;4</title>
<path fill="none" stroke="#0d347e" stroke-width="0.5" d="M4739.96,-236.119C4671.89,-263.453 4556.97,-306.166 4454,-328 4259.46,-369.251 4029.26,-384.324 3885.91,-389.831"/>
<polygon fill="#0d347e" stroke="#0d347e" points="3885.57,-388.618 3882.12,-389.975 3885.66,-391.066 3885.57,-388.618"/>
<text text-anchor="middle" x="4648" y="-299.5" font-family="Arial" font-size="10.00" fill="#0d347e">307604×</text>
</g>
<!-- 8&#45;&gt;14 -->
<g id="edge14" class="edge"><title>8&#45;&gt;14</title>
<path fill="none" stroke="#0d0e73" stroke-width="0.5" d="M4855.47,-183.885C4936.57,-147.168 5085.8,-79.6095 5159.09,-46.4277"/>
<polygon fill="#0d0e73" stroke="#0d0e73" points="5159.84,-47.4334 5162.52,-44.8738 5158.83,-45.2015 5159.84,-47.4334"/>
<text text-anchor="middle" x="5073" y="-121" font-family="Arial" font-size="10.00" fill="#0d0e73">0.22%</text>
<text text-anchor="middle" x="5073" y="-110" font-family="Arial" font-size="10.00" fill="#0d0e73">239477×</text>
</g>
<!-- 10&#45;&gt;4 -->
<g id="edge16" class="edge"><title>10&#45;&gt;4</title>
<path fill="none" stroke="#0d277a" stroke-width="0.5" d="M3049.8,-236.004C3123.46,-246.788 3208.45,-260.498 3285,-276 3414.77,-302.281 3562.81,-341.303 3655.82,-366.943"/>
<polygon fill="#0d277a" stroke="#0d277a" points="3655.69,-368.175 3659.38,-367.925 3656.34,-365.813 3655.69,-368.175"/>
<text text-anchor="middle" x="3524" y="-299.5" font-family="Arial" font-size="10.00" fill="#0d277a">281791×</text>
</g>
<!-- 10&#45;&gt;14 -->
<g id="edge17" class="edge"><title>10&#45;&gt;14</title>
<path fill="none" stroke="#0d0e73" stroke-width="0.5" d="M3182.82,-183.98C3757.16,-139.328 4921.02,-48.845 5158.94,-30.3477"/>
<polygon fill="#0d0e73" stroke="#0d0e73" points="5159.32,-31.547 5162.71,-30.0543 5159.13,-29.1044 5159.32,-31.547"/>
<text text-anchor="middle" x="4359" y="-121" font-family="Arial" font-size="10.00" fill="#0d0e73">0.23%</text>
<text text-anchor="middle" x="4359" y="-110" font-family="Arial" font-size="10.00" fill="#0d0e73">252056×</text>
</g>
</g>
</svg>
